<svg class="svg-icon" style="width: 1em; height: 1em;vertical-align: middle;fill: currentColor;overflow: hidden;" viewBox="0 0 1024 1024" version="1.1" xmlns="http://www.w3.org/2000/svg"><path d="M621.8 535.3c-19.6 0-38.2 4.1-55 11.5-16.8-7.4-35.4-11.5-55-11.5s-38.2 4.1-55 11.5c-16.8-7.4-35.4-11.5-55-11.5-75.7 0-137 61.3-137 137s61.3 137 137 137c19.6 0 38.2-4.1 55-11.5 16.8 7.4 35.4 11.5 55 11.5s38.2-4.1 55-11.5c16.8 7.4 35.4 11.5 55 11.5 75.7 0 137-61.3 137-137s-61.4-137-137-137z m-220 262c-69 0-125-56-125-125s56-125 125-125c14.3 0 28 2.4 40.7 6.8-40.5 23.8-67.7 67.8-67.7 118.2 0 50.4 27.2 94.4 67.7 118.2-12.8 4.4-26.5 6.8-40.7 6.8z m110 0c-14.3 0-28-2.4-40.7-6.8-4.9-1.7-9.7-3.7-14.3-5.9-41.5-20.3-70-63-70-112.3s28.5-91.9 70-112.3c4.6-2.3 9.4-4.2 14.3-5.9 12.8-4.4 26.5-6.8 40.7-6.8s28 2.4 40.7 6.8c-40.5 23.8-67.7 67.8-67.7 118.2 0 50.4 27.2 94.4 67.7 118.2-12.8 4.4-26.5 6.8-40.7 6.8z m110 0c-14.3 0-28-2.4-40.7-6.8-4.9-1.7-9.7-3.7-14.3-5.9-41.5-20.3-70-63-70-112.3s28.5-91.9 70-112.3c4.6-2.3 9.4-4.2 14.3-5.9 12.8-4.4 26.5-6.8 40.7-6.8 69 0 125 56 125 125s-56 125-125 125z"  /><path d="M725.1 634.7c-11.1-30.5-35.3-54.7-65.8-65.8-2.3-0.8-4.8 0.4-5.7 2.7-0.8 2.3 0.4 4.9 2.7 5.8h0.2c27.8 10.2 49.9 32.3 60.1 60.1 0 0.1 0 0.1 0.1 0.2 0.9 2.3 3.4 3.5 5.8 2.7 2.3-0.8 3.5-3.4 2.6-5.7z"  /><path d="M880.2 240h-0.5V84c0-11-8-20-17.7-20H161.4c-9.7 0-17.7 9-17.7 20v856c0 11 8 20 17.7 20H862c9.7 0 17.7-9 17.7-20V256h0.5v-16zM176.7 80h670.2c9.3 0 16.9 8.7 16.9 19.3V240h-704V99.3c0-10.6 7.6-19.3 16.9-19.3z m687.1 844.7c0 10.6-7.6 19.3-16.9 19.3H176.7c-9.3 0-16.9-8.7-16.9-19.3V256h704v668.7z"  /><path d="M748.1 160m-20 0a20 20 0 1 0 40 0 20 20 0 1 0-40 0Z"  /><path d="M689.1 160m-15 0a15 15 0 1 0 30 0 15 15 0 1 0-30 0Z"  /><path d="M640.1 160m-10 0a10 10 0 1 0 20 0 10 10 0 1 0-20 0Z"  /><path d="M261.7 199c3.3 0 6-2.7 6-6v-66c0-3.3-2.7-6-6-6s-6 2.7-6 6v66c0 3.3 2.7 6 6 6zM321.7 199c3.3 0 6-2.7 6-6v-66c0-3.3-2.7-6-6-6s-6 2.7-6 6v66c0 3.3 2.7 6 6 6zM381.7 199c3.3 0 6-2.7 6-6v-66c0-3.3-2.7-6-6-6s-6 2.7-6 6v66c0 3.3 2.7 6 6 6zM441.7 199c3.3 0 6-2.7 6-6v-66c0-3.3-2.7-6-6-6s-6 2.7-6 6v66c0 3.3 2.7 6 6 6zM501.7 199c3.3 0 6-2.7 6-6v-66c0-3.3-2.7-6-6-6s-6 2.7-6 6v66c0 3.3 2.7 6 6 6zM511.8 458.3c22.6 0 41-18.4 41-41 0-20.6-32.9-81.5-36.6-88.4l-4.4-8.1-4.4 8.1c-3.7 6.9-36.6 67.8-36.6 88.4 0 22.6 18.3 41 41 41z m0-116.4c11.5 22 31 62 31 75.4 0 17.1-13.9 31-31 31s-31-13.9-31-31c0-13.4 19.5-53.4 31-75.4z"  /></svg>