<svg class="svg-icon" style="width: 1em; height: 1em;vertical-align: middle;fill: currentColor;overflow: hidden;" viewBox="0 0 1024 1024" version="1.1" xmlns="http://www.w3.org/2000/svg"><path d="M862.7 689h-21.4V172.3c0-22.8-18.5-41.3-41.3-41.3H221.3c-22.8 0-41.3 18.5-41.3 41.3V689h-21.4c-13.4 0-22.9 13.3-19.1 26.6l43.6 150.6c5.1 17.5 20.6 29.5 38.2 29.5H800c17.6 0 33.1-12 38.2-29.5l43.6-150.6c3.9-13.3-5.7-26.6-19.1-26.6z m-579.4-51.7c0-91.4 38.1-155 72.3-155 4.9 0 9.8 1.4 14.7 3.9-27.4 30.6-45.8 86.7-45.8 151.1 0 18.1 1.6 35.3 4.3 51.7h-41.2c-2.7-15.9-4.3-33.2-4.3-51.7z m62 0c0-91.4 38.1-155 72.3-155 4.9 0 9.8 1.4 14.7 3.9-27.4 30.6-45.8 86.7-45.8 151.1 0 18.1 1.6 35.3 4.3 51.7h-41.2c-2.7-15.9-4.3-33.2-4.3-51.7z m62 0c0-91.4 38.1-155 72.3-155 4.9 0 9.8 1.4 14.7 3.9-27.4 30.6-45.8 86.7-45.8 151.1 0 18.1 1.6 35.3 4.3 51.7h-41.2c-2.7-15.9-4.3-33.2-4.3-51.7z m62 0c0-91.4 38.1-155 72.3-155 4.9 0 9.8 1.4 14.7 3.9-27.4 30.6-45.8 86.7-45.8 151.1 0 18.1 1.6 35.3 4.3 51.7h-41.2c-2.7-15.9-4.3-33.2-4.3-51.7z m62 0c0-91.4 38.1-155 72.3-155 4.9 0 9.8 1.4 14.7 3.9-27.4 30.6-45.8 86.7-45.8 151.1 0 18.1 1.6 35.3 4.3 51.7h-41.2c-2.7-15.9-4.3-33.2-4.3-51.7z m62 0c0-91.4 38.1-155 72.3-155s72.3 63.7 72.3 155c0 18.5-1.6 35.8-4.4 51.7H597.7c-2.8-15.9-4.4-33.2-4.4-51.7z m72.4-175.7c-10.9 0-21.3 3.7-31 10.2-9.7-6.5-20.1-10.2-31-10.2-10.9 0-21.3 3.7-31 10.2-9.7-6.5-20.1-10.2-31-10.2s-21.3 3.7-31 10.2c-9.7-6.5-20.1-10.2-31-10.2-10.9 0-21.3 3.7-31 10.2-9.7-6.5-20.1-10.2-31-10.2-10.9 0-21.3 3.7-31 10.2-9.7-6.5-20.1-10.2-31-10.2-51.4 0-93 78.7-93 175.7 0 18 1.5 35.3 4.2 51.7h-45.6V399.6H800V689h-45.6c2.7-16.3 4.2-33.6 4.2-51.7 0.1-97-41.6-175.7-92.9-175.7zM221.3 172.2H800v124H221.3v-124z m0 165.4H800V379H221.3v-41.4z m577.3 516.7H221.3l-34.8-124h648.1l-36 124z"  /><path d="M510.7 213.6h82.7v41.3h-82.7zM655.3 213.6H738v41.3h-82.7zM603.7 751H407.3v20.6H614V751z"  /></svg>